# xmcd CD database file
#
# Track frame offsets:
#	150
#	21429
#	41467
#	54055
#	75840
#	90425
#	104946
#	124495
#	146511
#	164655
#	180368
#	195678
#	205829
#	222043
#	241753
#	255272
#	270093
#
# Disc length: 3860 seconds
#
# Revision: 1
# Processed by: cddbd v1.5.2PL0 Copyright (c) Steve Scherf et al.
# Submitted via: CDex 1.70beta2
#
DISCID=da0f1211
DTITLE=Various Artist - Sanat Jukka Virtanen
DYEAR=2008
DGENRE=Pop
TTITLE0=Maalaismaisema (Pauli Hanhiniemi)
TTITLE1=Kun saavun Ouluun (Kari Tapio)
TTITLE2=Suurena miehenä (Pave Maijanen)
TTITLE3=Hanna ja Niilo (Jonna Kosonen)
TTITLE4=Matkamuistot (Ville Leinonen)
TTITLE5=Seitsemän kertaa seitsemän (Niko Ahvonen)
TTITLE6=Kuoleman paikka (Juha Lehti)
TTITLE7=Hottentotti-laulu (Tuomari Nurmio)
TTITLE8=Päättömällä pollella (Siiri Nordin)
TTITLE9=Perspirantti-Antti (Paleface)
TTITLE10=Paulin taikakaulin (Mikko Kivinen)
TTITLE11=Pornolaulu (Timo Rautiainen)
TTITLE12=Rakastatko vielä kun heräät (Sonja Lumme)
TTITLE13=Kuunnelkaa paras hän on (Paula Koivuniemi)
TTITLE14=Puhtaat munat ja vilpitön mieli (Ilkka Vainio)
TTITLE15=Balladi pojasta nimeltä V (Ville Virtanen)
TTITLE16=Pieni laulu (Laura Närhi)
EXTD=YEAR: 2008
EXTT0=
EXTT1=
EXTT2=
EXTT3=
EXTT4=
EXTT5=
EXTT6=
EXTT7=
EXTT8=
EXTT9=
EXTT10=
EXTT11=
EXTT12=
EXTT13=
EXTT14=
EXTT15=
EXTT16=
PLAYORDER=
